<svg width="18" height="12" viewBox="0 0 18 12" fill="none" xmlns="http://www.w3.org/2000/svg">
    <path
            d="M0.591112 11.5785L10.9764 5.13004H16.3637C16.4051 5.13004 16.446 5.13819 16.4842 5.15401C16.5224 5.16983 16.5571 5.19302 16.5864 5.22224C16.6156 5.25147 16.6387 5.28616 16.6545 5.32433C16.6702 5.3625 16.6783 5.4034 16.6782 5.44469C16.6825 5.49825 16.6708 5.55189 16.6447 5.59886C16.6185 5.64583 16.5791 5.68405 16.5312 5.70873L11.4305 8.76131C11.0991 8.95934 10.983 9.35686 10.983 9.65464L10.9778 11.5785H17.46V0.397884C17.4601 0.344265 17.4494 0.291171 17.4284 0.241811C17.4074 0.19245 17.3767 0.147847 17.3379 0.110693C17.2992 0.07354 17.2533 0.0446082 17.2031 0.0256447C17.1528 0.00668115 17.0993 -0.00192097 17.0456 0.000358815H10.8603L0.5 6.4209V11.5785H0.591112Z"
            fill="#3c3c3c"
    />
</svg>